PathFileType  4	(X/Y/Z) C:\Users\antoi\Documents\MyRepositories\mobilecap\ResultsAnalysis
DataRate	CameraRate	NumFrames	NumMarkers	Units	OrigDataRate	OrigDataStartFrame	OrigNumFrames
100.0	100.0	4	51	mm	100.0	82	131
Frame#	Time	r_knee			r_shank_antsup			r_ankle			r_calc			r_5meta			r_toe			L_knee			L_shank_antsup			L_ankle			L_calc			L_5meta			L_toe			r_sh2			r_sh3			r_sh4			L_sh2			L_sh3			r_thigh1			r_thigh2			r_thigh3			r_thigh4			r_thigh5			L_thigh1			L_thigh2			L_thigh3			L_thigh4			r.ASIS			r.PSIS			L.ASIS			L.PSIS			C7			R_Shoulder			L_Shoulder			R_Sternum			L_Sternum			R_humerus			R_elbow_med			R_elbow_lat			R_forearm			R_wrist_radius			R_wrist_ulna			L_humerus			L_elbow_med			L_elbow_lat			L_forearm			L_wrist_radius			L_wrist_ulna			R_HJC			L_HJC			R_HJC_reg			L_HJC_reg			
		X1	Y1	Z1	X2	Y2	Z2	X3	Y3	Z3	X4	Y4	Z4	X5	Y5	Z5	X6	Y6	Z6	X7	Y7	Z7	X8	Y8	Z8	X9	Y9	Z9	X10	Y10	Z10	X11	Y11	Z11	X12	Y12	Z12	X13	Y13	Z13	X14	Y14	Z14	X15	Y15	Z15	X16	Y16	Z16	X17	Y17	Z17	X18	Y18	Z18	X19	Y19	Z19	X20	Y20	Z20	X21	Y21	Z21	X22	Y22	Z22	X23	Y23	Z23	X24	Y24	Z24	X25	Y25	Z25	X26	Y26	Z26	X27	Y27	Z27	X28	Y28	Z28	X29	Y29	Z29	X30	Y30	Z30	X31	Y31	Z31	X32	Y32	Z32	X33	Y33	Z33	X34	Y34	Z34	X35	Y35	Z35	X36	Y36	Z36	X37	Y37	Z37	X38	Y38	Z38	X39	Y39	Z39	X40	Y40	Z40	X41	Y41	Z41	X42	Y42	Z42	X43	Y43	Z43	X44	Y44	Z44	X45	Y45	Z45	X46	Y46	Z46	X47	Y47	Z47	X48	Y48	Z48	X49	Y49	Z49	X50	Y50	Z50	X51	Y51	Z51	

82	0.81000000	884.04652	476.40939	-49.76641	876.95784	403.18848	-51.69425	590.60468	241.92352	-111.51037	551.44528	274.15038	-168.06406	592.87718	122.44114	-86.06752	644.73111	98.09574	-126.51549	897.54938	464.88407	-337.26329	930.97844	379.34570	-310.09659	843.23234	88.64118	-310.59575	780.36089	53.74642	-275.62143	947.80233	43.32414	-331.07365	992.35738	57.38342	-270.26885	780.83945	342.80235	-61.48741	836.03808	464.00148	-34.99995	732.50249	410.00141	-51.64640	864.37232	397.44052	-368.67395	850.27037	275.98846	-371.72695	881.93807	723.25190	-38.43185	911.11983	613.08006	-35.18981	852.76719	575.58771	-39.99437	774.54539	693.83320	-57.43413	807.70046	582.64634	-73.31869	908.44134	742.82479	-403.49918	927.32301	608.24284	-369.56965	800.18922	718.28218	-420.28993	812.13421	595.35507	-365.09213	896.44887	921.44763	-113.76598	690.98266	943.99065	-206.47913	915.09112	926.42244	-335.15987	700.46597	946.30790	-287.73043	786.80539	1394.74030	-223.61019	830.63035	1363.19202	-80.86868	828.77596	1364.22210	-359.78092	910.40437	1325.88061	-196.92738	909.39373	1327.11890	-238.19102	857.32614	1252.22380	-20.41058	788.60442	1041.03116	-27.30323	829.92996	1050.95673	23.20131	907.97777	994.94359	20.83569	979.14354	869.62799	-0.38127	956.90901	858.55641	30.49425	833.15803	1264.36741	-433.36429	780.91602	1042.25380	-423.90383	805.18769	1065.55572	-481.44306	867.75726	981.18566	-504.38999	909.83079	858.87782	-507.28121	877.82296	854.11591	-532.99087	817.41069	831.19417	-130.04880	836.35750	838.21613	-336.55833	829.13001	850.27119	-154.29340	846.13045	854.42285	-299.91891	
83	0.82000000	907.68532	479.92574	-50.36377	902.16256	406.17577	-52.50528	618.95775	239.32106	-112.10642	577.57370	269.40339	-168.43960	627.38704	120.27192	-85.99645	679.83624	98.22978	-126.96710	901.35350	464.92589	-337.27262	933.88248	379.00088	-309.51686	843.64303	89.07571	-310.35386	780.56542	54.03555	-275.32793	947.94928	43.33879	-331.02271	992.62930	57.27026	-270.21488	807.39997	343.87155	-62.33087	860.04509	466.06656	-35.50277	757.70827	409.99276	-51.81704	867.99656	397.67672	-368.60177	852.87923	276.38668	-371.64794	898.52024	726.72970	-38.93151	930.66040	617.61828	-35.70469	873.51983	578.28731	-39.79452	791.36189	694.07984	-57.12134	828.11345	584.55464	-72.37609	916.93075	742.58759	-403.73363	933.56462	607.82386	-369.44929	808.22823	719.92244	-420.32694	817.89894	596.88609	-364.64397	907.36862	923.40211	-113.92808	702.17836	945.58600	-207.83118	926.48856	927.12691	-335.28443	712.01526	947.89875	-288.91523	798.53773	1396.03004	-224.00015	841.66691	1364.31347	-80.96454	840.97988	1365.56543	-359.90653	921.85873	1326.94169	-196.60677	920.95791	1328.16996	-237.93892	866.63072	1253.02259	-19.95732	795.13945	1042.78321	-27.84989	836.22195	1052.15497	23.01710	912.73782	994.21927	21.87468	980.49304	866.62977	2.27952	957.81824	856.50175	33.10508	846.70857	1266.00474	-433.55136	796.78879	1043.25513	-425.33918	821.71047	1066.96931	-482.51208	886.08998	983.62726	-504.40236	930.64117	862.18281	-506.56592	899.08217	856.78044	-532.69447	828.07782	833.15412	-130.17209	847.84556	839.11095	-336.64482	840.11544	851.48764	-154.77540	857.77165	855.63914	-300.31284	
84	0.83000000	930.79898	483.53818	-51.15766	927.16605	409.13642	-53.55327	647.87059	235.42423	-112.59059	604.48223	263.29878	-168.71413	662.46047	117.05638	-86.22865	715.57836	97.56233	-127.62668	904.79832	465.01243	-337.38569	936.63776	378.82209	-309.36764	844.07292	89.52460	-310.12399	780.79352	54.37274	-275.04228	948.09464	43.34015	-330.99317	992.85310	57.11249	-270.18850	834.13694	344.51857	-63.22917	883.50619	467.95567	-36.04594	782.80121	409.26378	-51.78871	871.01561	398.04387	-368.54748	854.91623	276.90739	-371.59210	914.82121	730.22761	-39.46048	949.70899	622.22724	-36.31088	893.82956	581.15112	-39.70720	807.84956	694.47836	-56.61155	848.12395	586.72332	-71.41571	925.33461	742.27316	-404.03423	939.72090	607.38892	-369.43235	816.15355	721.57586	-420.31953	823.56237	598.42905	-364.14481	918.36896	925.31217	-114.17995	713.41197	947.16234	-208.84652	937.84045	927.85664	-335.46558	723.48699	949.49477	-289.78404	810.21613	1397.24328	-224.35988	852.69131	1365.37005	-81.06531	853.07558	1366.88088	-359.99497	933.23971	1327.98674	-196.31805	932.46682	1329.20231	-237.69596	875.97751	1253.80987	-19.54778	801.61828	1044.56124	-28.27090	842.45591	1053.41844	22.95236	917.41332	993.64138	23.05354	981.77830	863.93590	5.04689	958.65459	854.74891	35.78426	860.00712	1267.63473	-433.72347	812.65044	1044.26730	-426.65308	838.08010	1068.43887	-483.50829	904.35784	986.17661	-504.33113	951.39447	865.65521	-505.68328	920.36164	859.62132	-532.21351	838.89056	835.06720	-130.23493	859.19097	840.03902	-336.68874	851.21764	852.68892	-155.25525	869.32036	856.88138	-300.70034	
85	0.84000000	953.27239	487.18393	-52.14218	951.87706	412.10050	-54.81608	677.38050	230.27589	-112.93634	632.10043	255.85489	-168.81505	698.24086	112.90429	-86.69476	752.02280	96.24427	-128.49090	907.96581	465.15082	-337.57798	939.28691	378.78971	-309.62080	844.51991	89.98623	-309.90166	781.04519	54.77834	-274.78004	948.23128	43.32908	-330.98400	992.98312	56.87679	-270.19290	860.94137	344.82152	-64.14774	906.35671	469.68361	-36.63227	807.70902	407.90399	-51.65773	873.49836	398.53678	-368.51221	856.43526	277.54463	-371.56184	930.64340	733.65594	-39.94543	968.14682	626.78083	-36.97063	913.51921	584.08037	-39.76048	823.95570	694.95756	-55.97182	867.59636	588.97994	-70.58020	933.72234	741.89062	-404.35436	945.84546	606.95482	-369.46523	824.07590	723.22933	-420.25896	829.22240	599.99297	-363.63758	929.45818	927.13177	-114.55486	724.67151	948.65885	-209.48049	949.12929	928.60177	-335.74311	734.87135	951.00966	-290.28742	821.85281	1398.35017	-224.69818	863.71253	1366.33572	-81.16983	865.10141	1368.13480	-360.05373	944.55943	1328.99109	-196.07584	943.95301	1330.19525	-237.46743	885.38071	1254.55306	-19.19353	808.06743	1046.36706	-28.56531	848.64071	1054.71718	22.99370	922.03485	993.18959	24.36194	983.07483	861.54475	7.92451	959.48626	853.27020	38.53519	873.12114	1269.21813	-433.88446	828.47701	1045.26369	-427.86348	854.28788	1069.92237	-484.44228	922.52943	988.79685	-504.18227	972.05649	869.26980	-504.63228	941.62396	862.60459	-531.54923	849.89527	836.87487	-130.24633	870.38225	840.96790	-336.70526	862.42627	853.87233	-155.74784	880.77064	858.10180	-301.10117	
